<?xml version="1.0" standalone="no"?>
<!DOCTYPE svg PUBLIC "-//W3C//DTD SVG 20010904//EN"
 "http://www.w3.org/TR/2001/REC-SVG-20010904/DTD/svg10.dtd">
<svg version="1.0" xmlns="http://www.w3.org/2000/svg"
 width="876.000000pt" height="836.000000pt" viewBox="0 0 876.000000 836.000000"
 preserveAspectRatio="xMidYMid meet">

<g transform="translate(0.000000,836.000000) scale(0.100000,-0.100000)"
fill="#000000" stroke="none">
<path d="M6137 7534 c-3 -3 -25 -10 -49 -15 -145 -33 -296 -155 -356 -289 -52
-117 -82 -177 -99 -197 -26 -31 -155 -73 -245 -80 -43 -3 -117 0 -166 6 -48 7
-227 16 -397 21 -171 6 -355 15 -410 21 -155 17 -645 4 -830 -21 -452 -62
-520 -56 -635 60 -49 49 -80 93 -125 179 -90 172 -168 248 -295 290 -173 57
-380 -9 -545 -174 -85 -85 -124 -148 -170 -275 -26 -70 -28 -89 -33 -274 l-5
-198 -49 -74 c-54 -81 -91 -115 -245 -226 -130 -94 -384 -309 -493 -419 -75
-75 -229 -259 -301 -359 -60 -84 -204 -335 -249 -435 -91 -200 -181 -421 -209
-510 -126 -402 -122 -384 -152 -605 -11 -85 -25 -182 -30 -215 -16 -94 -22
-470 -10 -550 6 -38 16 -104 21 -145 16 -109 48 -265 70 -340 10 -36 24 -92
31 -125 13 -67 109 -407 140 -500 133 -398 401 -811 647 -998 31 -24 78 -59
103 -78 25 -20 82 -55 125 -79 43 -25 97 -55 119 -67 57 -33 223 -105 410
-176 124 -48 377 -105 627 -142 265 -39 261 -39 493 -60 411 -37 704 -54 1055
-60 168 -3 472 -10 675 -16 267 -8 412 -8 520 0 83 6 269 15 415 21 485 19
614 30 970 80 206 30 293 49 515 116 246 74 474 194 665 350 63 51 200 193
306 319 87 103 294 392 294 410 0 4 13 25 28 48 42 63 118 206 153 289 66 159
119 294 119 305 0 7 13 45 29 85 33 84 63 223 86 388 8 63 19 144 24 180 17
110 23 466 11 595 -13 141 -37 315 -50 365 -6 19 -10 51 -10 70 0 19 -12 80
-26 135 -14 55 -31 125 -39 155 -51 202 -203 579 -314 775 -94 165 -254 403
-379 560 -174 219 -539 547 -789 709 -46 29 -120 100 -149 141 -50 73 -55 102
-48 300 8 210 0 258 -66 400 -30 66 -51 93 -116 155 -128 122 -279 180 -464
180 -53 0 -99 -3 -103 -6z m346 -77 c118 -57 246 -197 247 -270 0 -10 7 -28
15 -40 8 -13 24 -61 36 -108 20 -79 20 -92 9 -210 -18 -172 -11 -258 26 -334
31 -64 123 -166 189 -209 75 -50 169 -116 174 -124 3 -5 50 -41 104 -81 219
-162 466 -408 597 -595 41 -58 91 -128 111 -154 20 -26 47 -67 61 -92 14 -25
41 -70 60 -100 89 -140 159 -280 226 -450 74 -187 122 -324 122 -348 0 -7 11
-52 25 -100 36 -129 74 -323 85 -437 13 -140 29 -277 36 -298 3 -10 0 -134 -6
-275 -11 -230 -16 -278 -51 -452 -21 -107 -48 -226 -58 -265 -40 -141 -170
-458 -245 -595 -42 -76 -76 -142 -76 -146 0 -4 -9 -18 -21 -30 -11 -12 -28
-35 -37 -51 -104 -184 -359 -490 -512 -615 -43 -35 -214 -138 -229 -138 -4 0
-29 -14 -57 -32 -90 -58 -225 -114 -334 -138 -19 -5 -96 -24 -170 -43 -241
-63 -625 -112 -1035 -133 -653 -33 -2148 -29 -2595 7 -69 6 -197 15 -285 19
-172 10 -293 22 -408 40 -188 30 -413 74 -422 81 -5 5 -23 9 -39 9 -41 0 -131
27 -349 106 -21 8 -68 28 -104 44 -36 17 -70 30 -74 30 -24 0 -289 139 -326
171 -10 9 -33 25 -52 35 -19 10 -42 26 -52 34 -9 8 -56 42 -104 75 -65 44
-105 82 -156 145 -37 47 -84 105 -104 130 -57 71 -135 178 -135 186 0 4 -10
21 -23 38 -21 29 -127 236 -160 316 -32 76 -54 152 -86 305 -5 22 -18 72 -29
110 -30 109 -65 251 -113 465 -11 52 -25 167 -31 255 -5 88 -11 178 -13 200
-7 76 32 529 56 655 39 202 88 388 123 465 13 28 38 95 56 150 17 55 67 174
110 265 43 91 80 172 83 181 3 10 45 77 94 150 48 74 90 139 92 144 12 33 73
118 120 169 74 78 78 82 135 151 58 71 167 176 216 210 61 42 192 142 280 214
47 38 114 92 150 121 137 108 244 260 269 380 6 30 10 129 10 220 -2 184 -1
190 71 310 54 91 137 175 211 213 30 15 70 37 89 47 49 28 155 27 215 -1 74
-35 141 -103 200 -204 30 -51 55 -97 55 -102 0 -15 93 -143 131 -182 19 -19
72 -52 119 -75 83 -40 87 -41 185 -40 136 2 378 18 391 26 44 28 676 49 869
29 251 -26 372 -32 685 -33 369 0 429 6 516 57 85 50 121 91 195 228 39 73 88
155 109 183 41 54 150 134 185 134 11 1 45 10 75 21 87 31 175 23 273 -24z"/>
<path d="M3110 4779 c-25 -4 -92 -8 -150 -8 -89 -1 -113 -5 -157 -25 -65 -31
-93 -59 -93 -94 0 -33 33 -68 70 -76 56 -12 242 -15 338 -4 87 9 109 15 142
39 46 33 49 52 18 106 -44 78 -57 82 -168 62z"/>
<path d="M5420 4738 c-34 -10 -89 -43 -102 -63 -15 -20 -8 -54 17 -83 44 -52
201 -82 435 -82 137 0 159 2 187 20 64 39 54 101 -24 150 -45 28 -54 30 -153
30 -58 0 -130 6 -160 14 -79 20 -160 25 -200 14z"/>
<path d="M2775 4320 c-197 -23 -338 -130 -431 -325 -52 -108 -67 -184 -61
-295 6 -115 26 -175 83 -257 61 -86 232 -216 349 -265 120 -51 260 -66 365
-39 30 7 91 32 135 55 68 35 84 48 108 91 16 28 43 66 61 85 54 57 74 93 98
171 19 63 22 93 20 204 -3 195 -40 299 -145 412 -65 70 -157 122 -262 149 -73
19 -226 26 -320 14z m256 -181 c41 -14 95 -53 109 -79 19 -36 30 -117 19 -147
-13 -37 -82 -88 -170 -125 -92 -39 -207 -49 -261 -24 -57 27 -97 75 -107 131
-8 43 -6 55 15 97 33 65 77 112 127 137 34 17 61 21 138 21 53 0 111 -5 130
-11z m90 -591 c44 -33 54 -61 40 -108 -12 -41 -68 -90 -102 -90 -9 0 -31 -7
-49 -16 -46 -24 -182 -15 -245 16 -60 29 -97 78 -93 122 4 38 -7 35 208 76
163 32 197 32 241 0z"/>
<path d="M5765 4260 c-70 -11 -246 -73 -302 -106 -107 -63 -193 -188 -218
-319 -35 -180 -8 -410 59 -511 46 -68 143 -154 174 -154 5 0 27 -12 48 -28 89
-63 175 -86 329 -86 144 0 221 23 334 99 131 88 190 167 221 297 24 100 25
130 5 217 -8 36 -22 99 -30 139 -15 69 -42 123 -106 205 -58 75 -306 225 -407
246 -29 6 -54 10 -55 10 -1 -1 -24 -5 -52 -9z m157 -205 c20 -14 44 -25 52
-25 24 0 85 -70 92 -105 7 -41 -12 -114 -39 -142 -27 -30 -114 -62 -186 -69
-82 -9 -231 28 -276 68 -66 57 -53 164 28 233 55 47 107 63 207 64 75 1 90 -2
122 -24z m177 -541 c27 -22 31 -32 31 -74 0 -44 -4 -52 -37 -79 -21 -17 -43
-31 -49 -31 -6 0 -23 -9 -38 -21 -20 -16 -48 -23 -117 -29 -104 -8 -128 -6
-189 22 -51 23 -71 41 -94 86 -22 43 -20 72 9 105 33 38 76 45 282 46 171 1
172 1 202 -25z"/>
<path d="M1189 3216 c-42 -28 -99 -110 -136 -194 -14 -31 -31 -70 -38 -87 -60
-135 -99 -303 -84 -358 10 -37 41 -67 69 -67 19 0 51 32 74 75 9 17 25 44 36
60 11 17 24 39 29 50 5 11 20 36 33 55 13 19 41 69 62 110 22 41 54 92 73 113
34 38 73 115 73 143 0 8 -15 35 -32 59 -53 70 -98 82 -159 41z"/>
<path d="M1536 3139 c-37 -39 -77 -123 -91 -191 -4 -18 -18 -51 -31 -73 -12
-22 -32 -74 -43 -115 -11 -41 -27 -92 -35 -112 -21 -50 -20 -96 4 -136 30 -48
63 -60 105 -38 46 25 66 49 105 126 19 36 41 74 51 85 9 11 34 52 54 90 21 39
54 95 74 125 30 46 36 64 36 111 0 46 -5 62 -29 93 -37 49 -82 76 -127 76 -29
0 -43 -8 -73 -41z"/>
<path d="M1963 3059 c-7 -7 -13 -16 -13 -21 0 -4 -18 -35 -40 -69 -22 -34 -47
-87 -56 -118 -9 -31 -22 -71 -30 -89 -8 -18 -14 -43 -14 -56 0 -13 -7 -43 -15
-66 -33 -94 -6 -170 60 -170 31 0 37 6 84 83 28 45 81 143 118 217 81 163 88
210 38 260 -35 34 -111 51 -132 29z"/>
<path d="M6694 3041 c-51 -31 -89 -134 -99 -271 -3 -41 -12 -104 -20 -140 -22
-104 -35 -184 -35 -216 0 -51 55 -113 101 -114 78 -1 142 110 159 277 6 51 19
120 30 153 20 61 50 175 50 196 0 23 -81 112 -112 123 -40 14 -38 14 -74 -8z"/>
<path d="M6323 3030 c-49 -29 -103 -125 -103 -180 0 -16 -9 -53 -19 -82 -41
-113 -74 -289 -60 -325 17 -45 91 -73 139 -53 35 15 51 38 75 110 34 106 96
245 131 297 32 47 35 57 29 95 -10 58 -27 89 -70 127 -42 36 -76 39 -122 11z"/>
<path d="M2304 3029 c-56 -90 -94 -174 -124 -277 -40 -136 -54 -240 -34 -269
20 -32 58 -55 78 -47 29 11 174 272 222 402 33 86 31 115 -9 158 -26 29 -42
37 -79 41 -32 4 -48 1 -54 -8z"/>
<path d="M7093 2945 c-75 -32 -122 -190 -129 -433 -3 -142 -2 -154 16 -172 11
-11 25 -20 30 -20 6 0 25 21 44 48 19 26 44 53 55 59 19 12 73 90 98 143 57
120 83 188 83 214 0 54 -69 145 -127 167 -30 11 -31 11 -70 -6z"/>
<path d="M4323 2922 c-105 -22 -122 -36 -125 -104 -3 -80 0 -119 13 -159 9
-30 8 -46 -5 -86 -27 -82 -99 -133 -189 -133 -54 0 -142 42 -164 79 -76 124
-102 144 -182 138 -45 -3 -59 -9 -79 -32 -20 -24 -23 -35 -18 -69 15 -90 90
-174 202 -226 152 -71 194 -82 292 -77 100 6 110 9 176 54 63 43 103 43 176 0
110 -65 143 -75 273 -83 93 -6 107 -4 157 16 79 34 152 95 204 174 61 90 60
114 0 161 -26 19 -58 35 -71 35 -35 0 -112 -39 -131 -67 -69 -98 -121 -142
-170 -143 -29 0 -89 31 -124 64 -35 34 -61 116 -62 198 -1 56 3 70 22 91 30
32 52 95 42 121 -20 56 -109 74 -237 48z"/>
<path d="M7463 2889 c-41 -26 -72 -91 -85 -177 -9 -61 -24 -142 -49 -259 -14
-63 -11 -88 11 -116 30 -38 79 -44 129 -16 23 12 48 33 56 46 19 28 50 131 59
191 4 24 18 71 31 103 14 33 28 79 31 103 6 38 3 49 -20 79 -24 32 -87 67
-119 67 -6 0 -26 -10 -44 -21z"/>
<path d="M4155 2005 c-65 -64 3 -140 161 -180 79 -19 133 -19 195 1 37 12 53
24 60 42 14 36 -5 83 -45 110 -29 20 -49 23 -143 27 -60 2 -122 9 -137 15 -42
16 -65 12 -91 -15z"/>
</g>
</svg>
