<?xml version="1.0" standalone="no"?>
<!DOCTYPE svg PUBLIC "-//W3C//DTD SVG 20010904//EN"
 "http://www.w3.org/TR/2001/REC-SVG-20010904/DTD/svg10.dtd">
<svg version="1.0" xmlns="http://www.w3.org/2000/svg"
 width="1920.000000pt" height="1080.000000pt" viewBox="0 0 1920.000000 1080.000000"
 preserveAspectRatio="xMidYMid meet">

<g transform="translate(0.000000,1080.000000) scale(0.100000,-0.100000)"
fill="#000000" stroke="none">
<path d="M14940 10782 c0 -20 29 -52 48 -52 13 0 42 39 42 57 0 9 -15 13 -45
13 -37 0 -45 -3 -45 -18z"/>
<path d="M13578 10589 c-22 -12 -23 -52 -3 -69 16 -13 47 -6 66 16 10 12 8 19
-11 39 -26 28 -28 28 -52 14z"/>
<path d="M14942 10507 c-17 -20 2 -692 19 -713 15 -18 53 -14 56 6 1 8 7 121
14 250 14 278 5 407 -32 447 -25 26 -42 29 -57 10z"/>
<path d="M13789 10421 c-23 -19 -23 -21 -9 -48 9 -15 23 -29 32 -31 36 -7 64
58 36 86 -17 17 -32 15 -59 -7z"/>
<path d="M7674 10339 c-38 -11 -89 -60 -115 -112 -11 -20 -42 -72 -70 -114
-66 -102 -225 -419 -282 -563 -102 -260 -120 -309 -207 -570 -106 -316 -129
-413 -130 -529 0 -72 3 -90 23 -118 33 -49 88 -41 149 24 33 35 45 67 107 283
60 206 76 257 131 410 22 63 72 203 110 310 74 210 128 344 152 382 8 12 20
39 27 58 22 65 123 219 178 271 48 46 58 51 86 45 63 -13 204 -98 284 -172
184 -170 335 -315 583 -560 213 -210 309 -298 345 -316 44 -22 68 -26 195 -32
80 -3 258 -1 395 4 306 12 774 -2 985 -30 193 -26 529 -84 730 -126 111 -23
443 -112 541 -145 48 -16 97 -29 108 -29 28 0 66 20 171 88 81 53 223 122 375
182 39 15 122 49 185 75 287 117 714 266 876 305 69 17 106 21 146 16 51 -7
56 -10 77 -48 38 -73 79 -181 95 -253 8 -38 19 -167 25 -285 6 -118 16 -285
21 -370 5 -85 12 -362 15 -615 l6 -460 28 -30 c16 -16 39 -52 52 -80 13 -27
50 -90 82 -138 77 -116 249 -437 299 -557 117 -280 234 -707 272 -995 32 -244
38 -343 33 -580 -5 -274 -15 -376 -57 -580 -41 -204 -90 -341 -200 -560 -147
-291 -240 -424 -432 -616 -115 -115 -333 -305 -378 -329 -12 -6 -44 -18 -71
-26 -56 -17 -69 -35 -69 -95 0 -40 5 -48 63 -104 111 -109 371 -238 634 -315
377 -110 390 -115 539 -232 114 -90 156 -181 135 -294 -33 -176 -261 -242
-616 -179 -195 35 -259 56 -425 139 -80 41 -163 77 -185 81 -22 3 -54 15 -71
26 -32 19 -80 25 -100 11 -6 -4 -23 -74 -37 -157 -41 -232 -53 -283 -90 -396
-94 -279 -147 -408 -265 -651 -168 -345 -249 -447 -507 -638 -30 -22 -55 -43
-55 -45 0 -3 82 -5 183 -5 l183 0 65 63 c91 88 173 194 245 316 105 175 237
483 308 716 15 50 32 101 37 115 5 14 17 59 28 100 11 41 28 109 39 150 10 41
22 87 26 103 l6 27 38 -16 c20 -8 73 -27 117 -41 l79 -25 -39 -32 c-120 -95
-145 -119 -207 -201 -92 -121 -112 -174 -113 -295 0 -85 3 -100 27 -140 58
-99 121 -133 243 -133 96 1 180 31 264 94 32 24 57 37 62 32 5 -5 16 -68 24
-139 15 -126 20 -159 51 -294 21 -92 63 -217 90 -272 13 -26 24 -52 24 -59 0
-6 9 -24 21 -40 20 -29 22 -29 115 -29 l94 0 -14 23 c-12 19 -30 59 -81 182
-65 154 -113 406 -122 635 -6 153 -6 156 20 205 21 39 25 58 20 88 -7 43 -51
87 -88 87 -26 0 -98 -54 -160 -120 -52 -55 -222 -168 -308 -204 -64 -28 -67
-28 -93 -11 -23 15 -26 22 -22 60 9 79 75 192 164 280 18 18 77 61 131 97 55
36 109 78 121 93 l21 26 163 -12 c225 -16 385 -3 513 43 187 67 307 218 308
388 0 123 -62 303 -134 385 -37 41 -165 128 -264 177 -64 32 -347 148 -361
148 -19 0 -434 200 -434 209 0 3 28 29 61 56 109 89 322 318 419 450 120 164
186 273 276 460 109 225 179 428 228 664 l22 106 73 30 c82 33 97 53 87 108
-5 29 -13 38 -46 51 -22 9 -50 16 -63 16 l-22 0 -1 293 c-1 291 -11 422 -49
612 -7 39 -10 74 -5 79 4 4 113 6 242 3 230 -5 236 -5 408 -45 96 -23 202 -49
235 -57 33 -9 137 -36 230 -60 253 -65 382 -101 465 -130 85 -30 96 -33 274
-75 241 -58 541 -166 725 -262 89 -46 128 -58 531 -158 649 -163 1009 -240
1116 -240 l35 0 -3 63 -3 62 -50 2 c-173 6 -473 56 -885 147 -36 8 -129 28
-208 46 -167 37 -213 52 -347 115 -285 135 -635 257 -871 304 -55 11 -118 26
-140 34 -183 68 -474 165 -589 198 -363 103 -728 159 -1034 159 l-157 0 -29
133 c-15 72 -32 141 -36 152 -4 11 -24 76 -44 145 -54 181 -75 237 -237 605
-44 99 -179 335 -250 435 -92 130 -98 147 -98 275 l0 110 63 95 c77 115 177
300 177 327 0 22 -18 43 -37 43 -23 0 -80 -59 -124 -130 -71 -115 -68 -113
-69 -45 -4 173 -20 442 -39 620 -59 562 -70 613 -179 772 -78 114 -184 217
-237 232 -79 22 -181 13 -340 -28 -82 -22 -177 -49 -210 -60 -155 -52 -348
-122 -415 -151 -41 -17 -122 -49 -180 -70 -151 -54 -296 -120 -392 -178 -109
-65 -346 -182 -370 -182 -11 0 -28 5 -39 10 -69 37 -322 116 -524 163 -343 80
-466 99 -865 131 -459 37 -735 48 -935 35 -188 -11 -282 -6 -338 19 -20 10
-155 133 -309 283 -540 526 -662 631 -848 724 -140 70 -246 90 -336 64z"/>
<path d="M16462 10299 c-11 -18 -11 -24 4 -40 21 -23 52 -21 68 3 8 13 6 22
-8 37 -24 27 -48 27 -64 0z"/>
<path d="M13925 10240 c-12 -19 25 -80 136 -226 115 -152 290 -364 327 -397
25 -23 42 -15 42 18 0 36 -295 430 -414 553 -59 60 -79 72 -91 52z"/>
<path d="M16200 10131 c-7 -17 -10 -38 -6 -46 14 -38 82 -30 92 11 8 30 -8 50
-47 59 -22 5 -28 2 -39 -24z"/>
<path d="M15948 9963 c-121 -107 -337 -305 -362 -332 -26 -27 -28 -34 -18 -56
15 -34 40 -32 99 8 126 85 393 339 393 374 0 53 -55 56 -112 6z"/>
<path d="M14840 9519 c-41 -10 -90 -30 -110 -43 -19 -13 -55 -35 -80 -49 -113
-63 -231 -192 -285 -309 -41 -90 -53 -213 -31 -323 37 -190 118 -319 263 -416
166 -113 320 -147 508 -115 245 41 380 170 464 440 38 124 25 313 -31 441 -40
92 -72 137 -152 215 -110 107 -206 151 -371 170 -107 12 -84 13 -175 -11z
m281 -94 c131 -46 229 -149 317 -331 45 -95 47 -103 50 -202 6 -165 -37 -308
-119 -397 -80 -87 -190 -125 -358 -125 -137 0 -215 17 -309 64 -96 49 -142 93
-181 173 -59 120 -73 190 -69 343 4 176 18 206 139 303 195 158 291 202 420
192 36 -3 86 -12 110 -20z"/>
<path d="M16509 9136 c-2 -2 -98 -11 -214 -20 -394 -31 -431 -38 -406 -84 6
-11 17 -22 25 -25 8 -3 74 -2 147 3 74 5 219 14 323 20 152 8 193 13 208 26
24 22 23 36 -5 62 -20 19 -66 30 -78 18z"/>
<path d="M16727 9122 c-23 -25 -21 -39 7 -57 29 -19 54 -10 63 23 4 18 1 29
-12 39 -25 18 -39 16 -58 -5z"/>
<path d="M15846 8571 c-36 -40 -16 -64 94 -111 41 -17 93 -40 115 -50 22 -10
94 -41 160 -70 66 -28 135 -57 153 -65 46 -21 69 -19 75 6 8 31 -9 66 -40 82
-27 14 -394 168 -494 207 -45 18 -48 18 -63 1z"/>
<path d="M10312 8528 c-11 -18 -23 -43 -26 -55 -10 -32 -123 -124 -277 -226
-150 -98 -507 -287 -609 -322 -37 -12 -79 -29 -96 -37 -16 -9 -90 -36 -164
-62 -74 -26 -167 -60 -206 -76 -83 -34 -198 -66 -413 -115 -276 -62 -338 -68
-726 -69 l-350 -1 -205 43 c-113 24 -241 52 -285 63 -44 12 -122 29 -173 39
-94 17 -94 17 -118 -4 -24 -21 -24 -22 -10 -71 22 -72 56 -100 165 -135 172
-56 372 -90 751 -126 318 -31 701 6 1090 107 186 48 399 111 495 146 39 13 81
28 95 33 124 41 356 140 500 212 204 101 368 203 511 317 56 45 105 81 109 81
10 0 93 -113 142 -195 113 -185 394 -468 663 -665 77 -57 156 -115 175 -130
41 -31 216 -144 275 -178 22 -12 128 -66 235 -118 107 -53 204 -100 215 -106
194 -107 599 -238 860 -278 44 -6 118 -18 165 -25 156 -25 263 -35 553 -51
351 -20 465 -17 525 15 85 44 82 104 -8 155 l-55 31 -340 0 c-316 1 -478 10
-632 35 -169 27 -203 34 -273 50 -260 62 -402 112 -690 242 -209 95 -317 150
-482 249 -184 110 -271 170 -404 280 -372 309 -440 373 -609 572 -81 94 -113
142 -163 242 -69 137 -95 165 -153 165 -32 0 -40 -5 -57 -32z"/>
<path d="M6699 8241 c-45 -14 -73 -33 -164 -112 -352 -304 -648 -697 -876
-1163 -38 -77 -77 -164 -88 -195 -11 -31 -31 -84 -46 -118 -34 -81 -118 -358
-138 -453 -9 -41 -24 -111 -34 -155 -14 -67 -17 -128 -16 -370 1 -315 16 -522
59 -784 14 -84 23 -155 21 -157 -2 -3 -76 21 -163 51 -87 31 -194 68 -237 81
-44 14 -159 64 -257 112 -476 232 -787 339 -1128 387 -151 22 -503 17 -589 -8
-30 -9 -55 -11 -58 -6 -4 5 -3 35 1 68 15 136 -33 524 -97 789 -59 246 -251
610 -425 809 -67 76 -159 146 -243 186 -55 26 -79 31 -166 35 -67 3 -115 0
-140 -8 -56 -19 -118 -81 -151 -153 -27 -58 -29 -70 -29 -192 0 -174 23 -268
140 -590 56 -153 259 -747 324 -950 60 -185 76 -260 59 -271 -13 -8 -212 -84
-214 -81 -19 28 -81 132 -118 197 -26 47 -60 105 -76 130 -16 25 -50 83 -76
130 -26 47 -62 108 -80 137 -33 52 -294 565 -294 577 0 4 -8 26 -19 49 -10 23
-30 72 -45 110 -14 37 -38 97 -52 135 -39 99 -122 262 -156 304 -42 54 -118
106 -166 114 -43 7 -128 -9 -174 -33 -87 -44 -159 -164 -200 -333 -24 -100
-20 -216 13 -440 50 -333 152 -617 328 -915 32 -55 57 -101 56 -103 -2 -2 -12
1 -23 7 -32 17 -99 13 -142 -9 -22 -11 -43 -20 -48 -20 -5 0 -15 28 -22 63
-18 86 -61 163 -123 218 -77 68 -127 90 -216 96 -99 6 -128 -10 -199 -104
l-55 -72 -37 19 c-20 10 -54 20 -76 22 l-39 3 -3 -74 -3 -75 25 27 c14 15 29
27 34 27 12 0 31 -22 51 -62 10 -19 30 -36 54 -46 36 -14 39 -13 62 8 14 13
28 43 35 73 14 65 43 112 89 142 135 88 231 -2 316 -295 35 -120 49 -140 96
-140 22 0 35 10 59 44 16 25 39 47 50 51 42 13 90 -37 117 -122 10 -32 27 -62
39 -70 29 -19 73 -7 84 22 13 34 25 37 49 12 27 -29 81 -188 81 -239 0 -25 7
-45 20 -58 21 -21 19 -40 -4 -40 -19 0 -156 -97 -231 -164 -88 -78 -255 -263
-316 -351 -185 -266 -194 -282 -257 -432 -55 -131 -88 -228 -98 -288 -12 -70
-20 -75 -42 -24 -69 160 -81 577 -26 907 19 116 13 152 -29 152 -46 0 -79 -60
-101 -185 -15 -85 -20 -124 -47 -385 -6 -58 -12 -106 -14 -108 -2 -3 -24 13
-49 33 l-46 37 0 -82 0 -83 63 -66 c51 -53 68 -79 86 -131 12 -36 53 -123 92
-195 l70 -130 -7 -178 c-5 -140 -9 -177 -20 -173 -7 3 -61 19 -121 36 -59 17
-120 34 -135 39 l-28 9 0 -72 0 -73 77 -7 c102 -9 205 -34 220 -54 7 -9 13
-37 13 -63 0 -26 7 -84 15 -130 8 -46 20 -113 26 -149 33 -185 128 -431 232
-601 79 -130 310 -396 435 -502 196 -166 319 -236 541 -308 69 -22 130 -45
136 -50 5 -5 39 -9 75 -9 79 0 110 17 110 60 0 39 -20 51 -161 99 -182 63
-251 95 -376 177 -144 93 -152 100 -281 227 -101 100 -241 274 -296 370 -30
52 -67 138 -128 297 -51 134 -54 142 -88 280 -96 390 -86 745 32 1095 55 162
171 387 266 515 161 218 262 320 427 431 74 50 155 135 155 164 0 38 -17 73
-40 80 -17 5 -19 10 -9 21 13 16 45 19 54 4 3 -5 31 -10 61 -10 45 0 59 4 79
25 39 38 33 75 -21 134 -52 57 -62 70 -200 252 -133 177 -199 274 -263 389
-30 52 -68 120 -86 150 -18 30 -45 84 -60 120 -144 342 -185 522 -192 840 -4
189 -4 196 19 240 42 82 125 114 173 66 24 -24 106 -178 120 -226 13 -44 136
-332 180 -420 99 -201 178 -355 202 -393 15 -23 69 -125 121 -227 52 -102 117
-223 144 -270 28 -47 66 -110 83 -140 18 -30 65 -119 104 -197 42 -84 81 -149
95 -158 22 -14 30 -13 117 16 52 17 110 39 129 49 19 9 58 23 86 29 28 7 67
25 86 41 34 28 35 32 43 117 10 123 9 136 -25 269 -51 200 -319 978 -395 1149
-24 55 -66 200 -100 350 -23 98 -36 265 -26 320 11 61 38 85 96 85 33 0 53 -8
91 -37 304 -229 510 -547 613 -943 70 -274 105 -677 81 -948 -12 -133 -12
-144 5 -162 20 -23 52 -25 89 -9 28 13 69 108 81 186 6 41 8 42 68 62 106 34
205 46 377 45 165 0 315 -17 445 -50 122 -31 364 -113 480 -163 28 -12 63 -27
80 -34 52 -22 249 -118 285 -140 59 -36 226 -102 697 -273 50 -18 59 -28 68
-75 6 -33 4 -37 -33 -63 -46 -31 -78 -76 -137 -189 l-41 -78 -64 83 c-84 109
-333 362 -440 448 -296 235 -636 383 -970 421 -145 16 -503 6 -633 -19 -100
-19 -120 -31 -133 -79 -10 -35 2 -52 48 -72 39 -17 55 -17 172 -8 165 14 431
-3 605 -39 537 -110 939 -388 1283 -889 49 -72 148 -244 148 -258 0 -6 12 -9
-265 59 l-230 57 -166 -7 c-244 -9 -362 -44 -538 -162 -90 -60 -139 -127 -152
-207 -18 -109 6 -215 79 -351 24 -45 41 -91 45 -125 4 -29 13 -64 22 -77 17
-27 53 -32 61 -9 9 22 27 18 55 -11 63 -67 285 -199 437 -259 116 -46 265 -94
447 -144 83 -23 173 -48 201 -56 28 -8 60 -15 72 -15 11 0 24 -5 27 -11 8 -13
-43 -143 -106 -270 -54 -108 -53 -124 11 -167 48 -33 95 -25 221 39 136 68
223 89 363 89 140 -1 239 -13 298 -39 55 -23 128 -86 128 -110 0 -30 -53 -70
-120 -91 -116 -38 -188 -50 -450 -80 -47 -6 -104 -17 -127 -26 -37 -13 -44
-21 -54 -56 -16 -61 -15 -67 97 -438 54 -181 47 -151 118 -495 55 -264 95
-577 82 -630 -7 -26 25 -78 66 -108 26 -20 26 -20 61 2 28 17 37 30 42 62 7
43 -1 198 -15 309 -5 36 -14 117 -20 180 -5 63 -13 131 -16 151 l-5 36 60 5
c46 3 67 10 86 28 33 31 48 89 39 156 -11 90 -66 137 -151 132 l-47 -3 -17 49
c-10 27 -34 75 -53 106 -40 65 -120 303 -111 331 10 31 39 39 178 49 162 12
275 33 343 64 68 31 140 98 155 143 15 47 20 36 53 -112 83 -374 142 -601 183
-710 8 -22 35 -96 59 -164 25 -69 58 -150 75 -180 17 -31 53 -99 79 -151 77
-154 217 -358 360 -524 l65 -76 168 0 168 0 -73 64 c-131 115 -308 332 -400
489 -85 145 -223 473 -290 687 -84 269 -193 751 -218 965 -17 141 -21 155 -55
189 -27 27 -38 32 -69 28 -30 -4 -42 -12 -64 -45 -25 -37 -27 -51 -31 -154 -2
-62 -6 -113 -10 -113 -4 0 -22 19 -39 43 -37 52 -159 137 -239 167 -32 12
-106 28 -165 36 -92 12 -122 12 -226 -1 -100 -13 -199 -35 -268 -62 -9 -3 -14
1 -14 12 0 18 48 145 60 158 4 4 27 3 51 -2 24 -6 112 -22 194 -36 83 -15 193
-37 245 -50 161 -40 237 -55 285 -55 40 0 52 5 80 33 40 40 52 77 36 115 -20
47 -72 67 -301 117 -151 32 -216 43 -390 65 -228 29 -659 132 -791 190 -37 17
-72 30 -78 30 -18 0 -255 116 -333 163 -42 26 -81 47 -85 47 -12 0 -126 91
-181 144 -90 86 -149 209 -136 283 25 144 152 212 369 199 170 -11 432 -53
590 -94 44 -12 139 -36 210 -53 178 -43 481 -148 755 -261 41 -17 102 -41 135
-55 33 -13 113 -49 177 -80 188 -89 230 -78 243 62 6 65 5 79 -10 95 -22 24
-206 118 -291 149 -34 13 -73 35 -86 49 -60 66 -255 419 -348 632 -73 168
-177 491 -228 715 -25 108 -44 259 -57 460 -13 183 -12 240 0 440 16 237 57
550 79 595 7 14 21 54 30 90 57 213 194 525 316 721 143 227 283 391 554 650
170 162 217 212 239 258 58 116 7 195 -104 162z m-4419 -3281 c0 -21 -7 -25
-98 -55 -53 -17 -87 -15 -80 7 4 10 136 64 166 67 6 0 12 -8 12 -19z m3268
-662 c74 -208 161 -399 267 -587 14 -24 23 -46 21 -49 -3 -2 -30 6 -61 17 -31
12 -73 25 -93 30 -95 24 -158 44 -169 53 -7 5 -17 26 -24 46 -6 20 -40 97 -75
170 -35 73 -64 140 -64 150 -1 43 47 155 91 216 27 36 53 66 58 66 4 0 26 -51
49 -112z m467 -3247 c11 -50 -40 -122 -72 -103 -6 4 -14 28 -18 54 -7 44 -5
47 21 62 44 23 62 20 69 -13z"/>
<path d="M16600 8210 c-8 -15 -6 -24 10 -40 26 -26 46 -25 60 1 9 16 8 25 -6
40 -22 25 -50 24 -64 -1z"/>
<path d="M16802 8188 c-20 -26 -23 -56 -7 -72 22 -21 27 -20 53 7 27 28 27 39
4 60 -22 20 -36 21 -50 5z"/>
<path d="M15551 8137 c-6 -6 -11 -25 -11 -42 0 -32 23 -65 121 -170 26 -27 76
-84 113 -126 36 -42 83 -88 105 -102 38 -25 39 -25 56 -7 26 29 12 55 -99 170
-56 58 -134 144 -174 192 -77 91 -93 103 -111 85z"/>
<path d="M14997 8043 c-9 -8 -9 -248 0 -482 7 -198 11 -211 63 -211 26 0 29 3
35 52 9 67 -4 532 -16 580 -12 48 -60 83 -82 61z"/>
<path d="M16040 7586 c-17 -21 -9 -56 17 -73 19 -13 24 -12 42 6 26 26 26 36
1 61 -24 24 -43 25 -60 6z"/>
<path d="M18012 7212 c-16 -15 -33 -38 -37 -51 -7 -24 -12 -24 -72 0 -71 29
-127 -25 -128 -122 0 -57 2 -62 37 -94 59 -54 145 -69 229 -40 24 9 50 22 59
29 8 7 29 17 45 20 89 22 135 75 135 156 0 55 -45 105 -88 96 -18 -4 -37 0
-57 14 -43 28 -87 26 -123 -8z m81 -13 c33 -15 60 -65 61 -115 2 -85 -101
-169 -200 -161 -99 7 -177 102 -143 173 20 41 68 45 115 9 43 -33 58 -28 74
22 12 37 46 83 61 83 5 0 19 -5 32 -11z m131 -51 c32 -46 5 -148 -39 -148 -12
0 -11 6 1 37 15 36 15 80 -1 116 -11 26 20 22 39 -5z"/>
<path d="M14995 7177 c-14 -11 -17 -21 -11 -47 8 -43 23 -60 52 -60 16 0 28
10 39 30 20 38 19 53 -3 73 -22 21 -52 22 -77 4z"/>
<path d="M8720 7131 c-20 -11 -42 -31 -50 -45 -12 -24 -11 -29 7 -54 27 -37
83 -48 179 -34 41 5 86 18 100 27 l25 16 -18 32 c-38 65 -171 97 -243 58z"/>
<path d="M15020 6955 c-28 -33 16 -84 46 -53 16 16 16 18 0 42 -19 30 -29 32
-46 11z"/>
<path d="M11370 6859 c-64 -26 -77 -69 -34 -113 62 -61 254 -74 254 -17 0 34
-52 93 -103 117 -56 26 -78 28 -117 13z"/>
<path d="M8555 6640 c-137 -21 -276 -118 -365 -255 -37 -58 -81 -184 -95 -271
-10 -63 12 -229 36 -277 69 -136 191 -225 375 -272 87 -22 295 -26 374 -6 227
57 332 227 334 541 1 142 -9 191 -63 295 -62 122 -184 218 -309 244 -59 12
-209 13 -287 1z m199 -191 c84 -21 176 -147 176 -239 0 -52 -64 -85 -187 -95
-110 -10 -144 -2 -188 43 -43 44 -60 74 -69 124 -9 51 12 88 71 126 84 54 118
61 197 41z m-217 -493 c22 -8 115 -20 207 -27 161 -12 168 -13 179 -36 9 -20
6 -28 -18 -53 -32 -33 -59 -43 -156 -59 -127 -21 -258 27 -316 115 -14 22 -14
26 1 49 19 29 45 31 103 11z"/>
<path d="M11360 6394 c-85 -11 -120 -21 -185 -53 -86 -43 -176 -123 -220 -197
-80 -134 -85 -436 -10 -590 54 -110 164 -200 325 -265 81 -33 90 -34 210 -33
106 0 133 3 180 23 159 65 268 183 326 351 27 77 27 283 1 355 -53 145 -137
248 -278 341 -71 48 -111 62 -224 78 -11 2 -67 -3 -125 -10z m234 -223 c52
-26 66 -38 82 -73 46 -102 9 -213 -80 -238 -50 -14 -128 -8 -212 16 -95 26
-138 103 -114 204 30 125 174 165 324 91z m-114 -534 c72 0 137 5 154 12 26
10 34 9 55 -7 37 -27 37 -45 -1 -88 -46 -52 -99 -74 -178 -73 -111 0 -189 40
-272 138 -56 66 -50 73 40 43 67 -22 93 -26 202 -25z"/>
<path d="M7355 5641 c-43 -26 -127 -122 -189 -216 -88 -133 -188 -322 -207
-392 -17 -59 -17 -68 -3 -94 37 -73 105 -9 293 276 51 77 101 149 110 160 44
51 103 158 108 194 5 33 1 44 -20 65 -31 31 -51 32 -92 7z"/>
<path d="M6853 5611 c-57 -35 -159 -158 -241 -290 -78 -127 -104 -249 -62
-291 20 -20 22 -20 52 -3 54 31 171 181 234 302 19 36 50 93 69 126 74 129 46
215 -52 156z"/>
<path d="M7674 5506 c-65 -29 -149 -171 -249 -421 -52 -133 -56 -183 -14 -206
31 -16 83 -2 117 32 32 32 143 227 216 378 32 66 46 107 46 137 0 72 -52 108
-116 80z"/>
<path d="M9875 5346 c-17 -17 -25 -39 -30 -82 -22 -202 -156 -293 -300 -204
-19 12 -43 36 -51 52 -9 17 -34 50 -56 74 -47 51 -81 57 -121 20 -25 -23 -25
-23 -10 -86 8 -35 20 -75 28 -89 18 -35 92 -105 133 -125 28 -15 32 -21 32
-59 0 -23 -5 -69 -10 -102 -7 -41 -7 -101 0 -190 19 -228 38 -305 111 -445 49
-96 94 -141 177 -182 63 -31 72 -33 172 -32 131 1 173 13 236 66 77 65 120
123 175 233 61 122 85 231 95 419 l7 136 60 22 c71 26 158 106 177 163 17 50
5 121 -25 151 -35 35 -97 34 -122 -2 -65 -93 -126 -138 -203 -148 -117 -15
-192 45 -229 182 -14 52 -20 94 -16 113 16 73 -57 139 -154 139 -41 0 -57 -5
-76 -24z m-107 -488 c18 -18 15 -33 -14 -67 -33 -39 -51 -39 -59 -1 -12 55 39
102 73 68z m511 -77 c25 -35 26 -49 5 -79 -24 -34 -57 -28 -77 13 -23 48 -21
70 6 83 34 17 44 14 66 -17z m-498 -331 c51 -14 90 -59 100 -117 12 -62 40
-87 89 -78 47 9 70 31 71 69 1 17 4 42 8 56 13 48 122 79 166 47 22 -17 17
-63 -19 -155 -51 -129 -122 -183 -244 -185 -98 -1 -153 27 -186 96 -36 77 -74
245 -61 268 8 12 31 11 76 -1z"/>
<path d="M8001 5353 c-19 -8 -159 -226 -197 -308 -38 -84 -52 -171 -31 -199
11 -15 21 -17 50 -12 44 8 116 83 204 214 69 102 98 181 87 237 -10 55 -63 88
-113 68z"/>
<path d="M15444 5346 c-68 -17 -112 -45 -176 -114 -79 -86 -112 -175 -116
-313 -3 -98 -2 -111 24 -170 30 -70 83 -119 130 -119 33 0 78 45 69 68 -34 80
-39 104 -39 192 -1 111 23 180 80 230 67 58 196 69 285 22 84 -44 93 -67 95
-246 2 -149 2 -151 29 -173 14 -13 38 -23 53 -23 147 0 532 -25 637 -40 373
-55 702 -148 1013 -285 130 -58 188 -69 213 -39 8 9 16 49 20 88 7 86 35 135
106 183 50 34 151 73 188 73 11 0 43 -14 69 -30 121 -77 122 -249 4 -392 -49
-59 -50 -61 -39 -97 16 -56 41 -73 105 -75 68 -1 93 19 142 119 33 67 46 118
60 232 12 96 -45 225 -136 307 -133 120 -360 139 -502 42 -73 -49 -134 -141
-144 -218 -4 -26 -10 -48 -15 -48 -4 0 -43 16 -86 36 -350 161 -798 274 -1248
314 -60 5 -142 12 -181 15 -39 4 -76 10 -83 14 -7 4 -18 38 -26 75 -22 106
-58 173 -133 249 -78 79 -119 103 -211 123 -79 16 -119 16 -187 0z"/>
<path d="M12758 5098 c-82 -87 -162 -194 -235 -315 -93 -153 -111 -194 -120
-273 -5 -50 -3 -60 16 -79 36 -36 63 -27 132 47 62 65 107 131 266 390 107
175 112 246 15 259 -38 5 -44 2 -74 -29z"/>
<path d="M12234 5058 c-150 -159 -264 -340 -264 -422 0 -13 9 -35 21 -50 26
-32 68 -34 116 -5 48 30 180 183 230 266 83 140 93 194 42 237 -50 42 -85 36
-145 -26z"/>
<path d="M13140 4971 c-27 -27 -66 -75 -86 -108 -20 -32 -63 -97 -94 -145
-106 -159 -126 -266 -58 -308 28 -17 34 -17 58 -5 60 31 185 198 271 362 34
65 65 123 69 128 26 33 6 95 -37 114 -46 21 -72 13 -123 -38z"/>
<path d="M13495 4815 c-17 -7 -45 -35 -63 -62 -18 -26 -57 -77 -87 -113 -119
-143 -173 -282 -130 -330 22 -24 46 -25 88 -4 70 35 203 198 278 342 37 69 39
129 6 160 -26 25 -48 26 -92 7z"/>
<path d="M3260 4509 c-170 -30 -300 -97 -300 -154 0 -51 50 -59 104 -16 86 69
239 84 409 43 147 -36 185 -60 326 -201 108 -108 133 -139 177 -221 54 -101
95 -140 114 -110 18 28 11 95 -15 144 -70 132 -184 270 -295 357 -154 121
-365 185 -520 158z"/>
<path d="M18318 4035 c-16 -9 -29 -27 -33 -47 -7 -29 -4 -35 38 -70 106 -90
277 -319 358 -479 138 -276 193 -505 206 -858 8 -209 -12 -328 -88 -530 -52
-139 -56 -148 -111 -263 -47 -97 -63 -114 -75 -80 -28 74 -95 136 -170 156
-41 11 -58 10 -121 -5 -121 -30 -204 -81 -312 -189 -119 -120 -221 -282 -228
-364 -8 -104 36 -141 109 -91 56 40 89 79 152 187 61 103 172 222 234 250 111
49 192 -12 193 -148 0 -33 -76 -198 -136 -291 -50 -80 -87 -117 -167 -165 -61
-37 -117 -91 -117 -113 0 -4 11 -23 26 -42 22 -29 30 -33 73 -33 61 0 153 44
209 102 23 23 42 46 42 50 0 5 17 8 38 6 l37 -3 3 48 c2 35 15 67 50 126 26
43 56 94 67 112 l19 34 7 -173 c4 -96 10 -176 13 -179 14 -14 55 9 67 39 24
59 5 304 -27 339 -19 21 -18 27 14 68 61 80 117 174 187 316 88 177 136 338
159 525 43 348 44 389 21 575 -17 139 -18 145 -52 285 -22 90 -24 118 -19 194
7 95 24 147 58 183 30 32 47 29 65 -14 18 -44 28 -53 66 -53 l27 0 0 163 0
162 -20 -30 c-11 -16 -25 -46 -30 -65 -16 -57 -26 -67 -50 -52 -11 6 -36 12
-55 12 -29 0 -44 -9 -79 -43 -24 -24 -51 -65 -61 -90 -16 -42 -35 -62 -35 -38
0 28 -169 274 -261 381 -12 14 -43 49 -68 78 -49 57 -131 118 -171 126 -14 3
-37 -1 -52 -9z"/>
<path d="M15620 3984 c-67 -12 -111 -28 -131 -50 -24 -26 -21 -46 13 -68 21
-14 30 -14 78 -1 30 9 96 18 145 21 77 5 104 2 189 -21 106 -27 119 -25 119
19 0 33 -17 52 -67 79 -36 19 -59 22 -181 23 -77 1 -151 0 -165 -2z"/>
<path d="M1720 3931 c-110 -34 -264 -193 -349 -358 -10 -21 -31 -76 -46 -123
-25 -75 -28 -100 -29 -220 0 -141 9 -203 51 -332 20 -65 30 -80 59 -99 29 -17
37 -19 50 -8 18 15 17 32 -16 169 -18 74 -23 125 -24 230 0 156 15 222 89 375
70 145 147 217 275 260 27 9 55 25 61 36 29 54 -41 94 -121 70z"/>
<path d="M9650 3771 c-26 -50 2 -147 58 -197 15 -13 56 -39 92 -56 62 -32 70
-33 180 -33 106 0 119 2 173 29 128 63 154 172 53 220 -33 16 -38 16 -68 0
-18 -9 -51 -30 -73 -45 -49 -35 -131 -52 -187 -40 -29 7 -58 27 -108 75 -71
69 -102 81 -120 47z"/>
<path d="M3367 3740 c-55 -14 -102 -56 -139 -125 -29 -54 -33 -68 -32 -142 0
-70 4 -90 30 -139 86 -170 314 -203 463 -68 74 66 101 152 86 270 -6 51 -13
63 -57 110 -36 38 -67 60 -107 75 -64 24 -186 33 -244 19z m161 -126 c44 -50
16 -111 -64 -138 -41 -14 -49 -14 -75 0 -17 8 -35 26 -41 40 -17 36 13 87 66
114 49 24 82 20 114 -16z m82 -208 c0 -23 -67 -74 -105 -82 -40 -7 -77 0 -111
23 -43 28 -30 39 44 36 51 -3 77 1 107 16 49 24 65 25 65 7z"/>
<path d="M17162 3703 c-19 -4 -42 -36 -42 -58 0 -16 61 -38 133 -50 106 -17
155 -42 232 -114 103 -98 145 -114 145 -53 0 63 -107 182 -211 234 -79 40
-179 56 -257 41z"/>
<path d="M15430 3438 c-36 -11 -71 -25 -77 -30 -29 -23 -2 -73 42 -79 11 -1
49 1 85 5 87 10 266 -17 342 -51 81 -36 148 -21 148 32 0 29 -32 55 -129 103
-74 37 -76 37 -210 39 -113 2 -147 -2 -201 -19z"/>
<path d="M2041 3210 c-50 -11 -121 -65 -156 -119 -13 -20 -33 -68 -45 -108
-21 -70 -21 -73 -4 -133 25 -88 88 -162 162 -191 113 -42 244 -15 335 70 58
53 72 89 71 176 -2 126 -44 201 -153 277 -34 24 -56 31 -105 34 -33 2 -81 -1
-105 -6z m96 -100 c18 -7 36 -24 46 -44 15 -32 14 -35 -8 -68 -13 -20 -44 -43
-75 -58 -48 -22 -54 -23 -78 -9 -37 20 -51 63 -31 97 11 21 100 92 114 92 1 0
15 -5 32 -10z m93 -249 c0 -17 -74 -71 -106 -77 -35 -6 -77 11 -71 29 2 6 23
16 48 23 24 6 55 16 69 22 32 14 60 15 60 3z"/>
<path d="M14445 3203 c-11 -3 -26 -10 -32 -15 -24 -20 -115 -182 -115 -205 0
-29 29 -63 54 -63 46 0 188 170 188 226 0 42 -45 70 -95 57z"/>
<path d="M14745 3194 c-34 -17 -95 -104 -149 -212 -40 -80 -38 -106 9 -118 45
-11 92 31 178 159 57 85 66 120 39 156 -23 32 -38 35 -77 15z"/>
<path d="M17019 3157 c-40 -27 -46 -46 -22 -76 15 -18 33 -23 113 -30 101 -8
135 -22 303 -123 77 -45 109 -50 139 -20 19 18 20 24 8 51 -14 36 -101 113
-177 160 -60 37 -160 61 -259 61 -58 0 -77 -4 -105 -23z"/>
<path d="M14987 3119 c-20 -12 -197 -276 -197 -294 0 -18 34 -45 57 -45 32 0
109 57 150 112 21 28 44 59 51 69 7 9 22 40 32 67 19 50 19 50 -1 76 -22 28
-60 34 -92 15z"/>
<path d="M15162 2965 c-17 -19 -42 -54 -57 -78 -22 -39 -24 -48 -14 -71 28
-60 87 -40 147 48 36 54 41 95 14 119 -29 26 -57 20 -90 -18z"/>
<path d="M16367 2900 c-14 -11 -29 -35 -32 -53 -10 -46 -60 -94 -105 -102 -48
-8 -94 12 -139 59 -19 20 -40 36 -47 36 -42 0 -60 -89 -26 -129 9 -11 46 -35
82 -53 57 -29 67 -38 78 -75 16 -49 71 -117 116 -141 23 -13 56 -17 132 -17
93 0 104 2 142 28 23 15 42 31 42 35 1 21 22 35 61 39 58 6 126 41 147 76 15
25 15 30 1 55 -12 23 -21 27 -54 26 -22 0 -64 -6 -94 -12 -68 -15 -122 -2
-152 36 -18 24 -20 35 -15 90 6 60 5 64 -23 92 -35 36 -77 39 -114 10z m74
-287 c22 -21 39 -41 39 -45 0 -10 -60 -28 -95 -28 -32 0 -95 35 -102 57 -5 15
63 52 96 53 14 0 39 -15 62 -37z"/>
<path d="M2923 2865 c-38 -38 -38 -55 -2 -107 26 -37 26 -123 0 -137 -38 -21
-99 -24 -139 -8 -37 15 -41 15 -61 -4 -31 -29 -27 -71 12 -109 37 -36 66 -50
107 -50 24 0 33 -7 50 -39 41 -81 149 -237 182 -262 117 -90 216 -92 305 -6
51 49 67 91 66 172 -1 74 -14 125 -60 233 l-35 83 32 40 c58 72 50 190 -13
197 -39 5 -55 -12 -63 -64 -5 -34 -14 -50 -38 -68 -82 -62 -154 -36 -212 76
-22 44 -66 88 -86 88 -6 0 -26 -16 -45 -35z m331 -382 c19 -39 46 -163 46
-216 0 -58 -25 -82 -75 -73 -44 9 -69 35 -100 106 -14 30 -34 72 -45 92 -30
56 -7 55 34 -2 39 -54 72 -69 112 -51 28 12 31 43 9 81 -20 35 -19 90 1 90 2
0 10 -12 18 -27z"/>
<path d="M17590 2637 c-21 -7 -45 -28 -62 -52 -34 -49 -92 -183 -90 -209 1
-25 31 -56 54 -56 32 0 95 68 138 151 46 88 52 129 25 159 -21 23 -19 23 -65
7z"/>
<path d="M17835 2579 c-11 -5 -50 -63 -87 -127 -104 -183 -119 -217 -109 -244
37 -99 136 -27 235 171 68 135 72 172 19 200 -25 13 -31 13 -58 0z"/>
<path d="M19127 2532 c-27 -30 -20 -63 22 -109 22 -24 42 -43 45 -43 3 0 6 36
6 79 0 63 -3 80 -16 85 -26 10 -40 7 -57 -12z"/>
<path d="M18073 2483 c-22 -20 -125 -191 -148 -247 -28 -67 -16 -136 25 -136
49 0 209 223 233 323 10 44 9 51 -8 63 -26 19 -79 17 -102 -3z"/>
<path d="M1786 2360 c-31 -38 -41 -94 -40 -236 0 -89 3 -116 18 -138 21 -33
51 -32 77 4 24 32 52 226 43 293 -6 44 -43 107 -64 107 -5 0 -20 -14 -34 -30z"/>
<path d="M18269 2358 c-40 -33 -129 -205 -129 -249 0 -33 22 -53 49 -44 29 9
131 123 152 170 25 55 24 72 -10 106 -33 32 -41 34 -62 17z"/>
<path d="M16150 2339 c-17 -32 -4 -64 39 -98 89 -71 204 -95 260 -54 33 25 37
52 12 85 -18 22 -29 26 -106 30 -71 5 -92 10 -123 32 -46 31 -68 33 -82 5z"/>
<path d="M1961 2327 c-43 -46 -52 -247 -14 -289 50 -55 92 18 93 158 0 143
-26 186 -79 131z"/>
<path d="M1562 2318 c-22 -25 -48 -163 -59 -324 -7 -96 0 -129 28 -145 43 -22
91 53 108 171 26 174 29 221 20 255 -18 65 -59 83 -97 43z"/>
<path d="M1346 2221 c-26 -29 -37 -79 -36 -181 0 -140 25 -220 70 -220 39 0
50 47 50 213 0 141 -2 157 -21 181 -24 31 -40 33 -63 7z"/>
<path d="M3164 1959 c-17 -18 -17 -23 -4 -46 25 -44 82 -81 149 -99 71 -18
111 -14 174 18 53 27 76 46 93 80 13 25 12 30 -7 49 -29 29 -82 20 -121 -20
-48 -49 -150 -52 -188 -6 -12 14 -62 45 -73 45 -2 0 -12 -9 -23 -21z"/>
<path d="M6461 1277 c-8 -11 -1 -37 28 -111 22 -54 42 -100 46 -104 14 -14 40
16 37 44 -6 48 -40 136 -64 161 -25 27 -31 28 -47 10z"/>
<path d="M579 1223 c-22 -41 -19 -166 5 -192 27 -30 64 -28 72 5 9 34 -13 163
-32 192 -19 29 -27 28 -45 -5z"/>
<path d="M18906 1234 c-12 -31 -18 -123 -12 -168 6 -40 10 -46 31 -46 14 0 29
8 35 19 14 28 13 184 -2 199 -17 17 -45 15 -52 -4z"/>
<path d="M160 1211 c0 -34 68 -171 92 -185 20 -12 58 17 58 44 0 22 -94 155
-115 164 -29 11 -35 7 -35 -23z"/>
<path d="M19155 1107 c-19 -35 -35 -71 -35 -79 0 -24 27 -41 55 -34 24 6 25 9
25 91 0 47 -2 85 -5 85 -2 0 -20 -29 -40 -63z"/>
<path d="M0 1054 c0 -58 4 -74 20 -89 17 -15 24 -16 45 -7 14 7 25 20 25 31 0
16 -46 87 -81 126 -5 5 -9 -21 -9 -61z"/>
<path d="M18063 831 c-34 -21 -66 -77 -122 -213 -18 -42 -38 -82 -46 -88 -7
-6 -23 -36 -36 -68 -32 -81 -151 -280 -226 -378 l-64 -84 124 0 123 0 48 80
c26 44 74 136 107 204 33 69 76 153 96 188 90 154 123 231 123 284 0 27 -6 58
-12 66 -21 28 -78 32 -115 9z"/>
<path d="M6304 663 c10 -115 22 -152 51 -159 37 -9 45 2 45 64 0 99 -36 172
-83 172 -19 0 -19 -5 -13 -77z"/>
<path d="M6082 718 c-16 -16 -15 -53 2 -86 7 -15 21 -62 31 -105 20 -89 44
-129 68 -109 40 33 22 155 -37 252 -37 60 -46 66 -64 48z"/>
<path d="M6640 712 c-26 -21 -39 -76 -40 -159 0 -69 13 -80 49 -44 23 23 64
156 56 182 -10 32 -40 41 -65 21z"/>
<path d="M1153 603 c-5 -16 -8 -80 -7 -143 0 -91 6 -138 29 -228 15 -62 26
-115 22 -118 -3 -3 -29 20 -59 50 -55 56 -88 71 -88 39 0 -10 22 -52 50 -93
31 -47 48 -81 44 -92 -5 -17 5 -18 113 -18 107 0 119 2 131 20 16 26 48 26 55
0 3 -14 14 -20 31 -20 30 0 31 2 11 65 l-14 48 42 39 c45 41 67 47 87 23 19
-23 30 -8 30 39 0 40 3 45 68 97 37 30 94 74 127 98 74 53 94 78 95 113 0 40
-45 88 -84 88 -41 0 -157 -56 -223 -109 -61 -48 -76 -50 -91 -16 -18 40 -32
29 -32 -24 0 -44 -4 -52 -37 -81 -34 -31 -37 -31 -50 -14 -7 10 -13 29 -13 42
0 22 -23 124 -36 162 -4 12 -7 12 -16 -4 -7 -13 -7 -57 2 -148 11 -124 11
-132 -8 -157 -22 -30 -68 -59 -78 -49 -11 12 -42 176 -49 262 -11 138 -34 194
-52 129z"/>
<path d="M18836 278 c-20 -28 -20 -56 0 -124 12 -42 21 -55 39 -60 39 -10 48
3 42 62 -6 57 -40 144 -56 144 -5 0 -17 -10 -25 -22z"/>
<path d="M2070 272 c-60 -20 -131 -75 -232 -180 l-83 -87 129 -3 c112 -2 131
0 148 15 19 17 20 17 33 0 10 -14 29 -17 124 -17 61 0 111 2 111 5 0 3 -11 22
-24 43 -13 21 -41 72 -61 113 -46 90 -73 129 -88 128 -7 -1 -32 -8 -57 -17z"/>
<path d="M13871 281 c-9 -6 -11 -16 -7 -27 13 -33 38 -127 50 -189 l12 -60 46
-3 46 -3 -9 43 c-28 125 -63 208 -98 235 -19 15 -22 15 -40 4z"/>
<path d="M19120 228 c-29 -47 -25 -142 6 -146 29 -4 43 17 56 87 9 47 9 63 -2
75 -19 24 -38 19 -60 -16z"/>
<path d="M13586 201 c-3 -5 6 -35 19 -66 14 -32 29 -74 33 -94 6 -29 13 -37
35 -39 24 -3 27 0 27 26 0 42 -27 126 -51 156 -20 26 -53 35 -63 17z"/>
<path d="M14203 188 c-17 -23 -32 -72 -39 -130 l-6 -58 40 0 c48 0 52 8 52
100 0 38 -3 75 -6 84 -7 19 -28 21 -41 4z"/>
<path d="M860 128 c0 -26 9 -57 25 -85 24 -41 28 -43 70 -43 25 0 45 4 45 8 0
13 -60 105 -88 135 -37 39 -52 35 -52 -15z"/>
<path d="M5997 122 c-19 -21 -22 -73 -7 -103 10 -17 22 -19 137 -19 l127 0
-49 50 c-32 33 -68 57 -103 70 -65 25 -84 25 -105 2z"/>
</g>
</svg>
